<?xml version="1.0" encoding="UTF-8" standalone="no"?>
<!-- Created with Inkscape (http://www.inkscape.org/) -->

<svg
   width="210mm"
   height="297mm"
   viewBox="0 0 210 297"
   version="1.1"
   id="svg5"
   inkscape:version="1.1.2 (b8e25be833, 2022-02-05)"
   sodipodi:docname="16.svg"
   xmlns:inkscape="http://www.inkscape.org/namespaces/inkscape"
   xmlns:sodipodi="http://sodipodi.sourceforge.net/DTD/sodipodi-0.dtd"
   xmlns="http://www.w3.org/2000/svg"
   xmlns:svg="http://www.w3.org/2000/svg">
  <sodipodi:namedview
     id="namedview7"
     pagecolor="#ffffff"
     bordercolor="#111111"
     borderopacity="1"
     inkscape:pageshadow="0"
     inkscape:pageopacity="0"
     inkscape:pagecheckerboard="1"
     inkscape:document-units="mm"
     showgrid="false"
     inkscape:zoom="1"
     inkscape:cx="396.5"
     inkscape:cy="481"
     inkscape:window-width="1920"
     inkscape:window-height="1017"
     inkscape:window-x="-8"
     inkscape:window-y="-8"
     inkscape:window-maximized="1"
     inkscape:current-layer="layer1" />
  <defs
     id="defs2">
    <inkscape:path-effect
       effect="spiro"
       id="path-effect1002"
       is_visible="true"
       lpeversion="1" />
    <inkscape:path-effect
       effect="spiro"
       id="path-effect998"
       is_visible="true"
       lpeversion="1" />
    <inkscape:path-effect
       effect="spiro"
       id="path-effect915"
       is_visible="true"
       lpeversion="1" />
  </defs>
  <g
     inkscape:label="Слой 1"
     inkscape:groupmode="layer"
     id="layer1">
    <path
       style="opacity:1;fill:#006b54;fill-opacity:1;fill-rule:evenodd;stroke-width:0.264583"
       d="m 89.59228,224.73773 c -6.981268,-0.73633 -13.324794,-2.94415 -18.774213,-6.53424 -2.530522,-1.66712 -6.178124,-5.20561 -7.831365,-7.59711 -1.614157,-2.33496 -3.228467,-5.6669 -3.876783,-8.0017 -0.481664,-1.73463 -0.632561,-1.89973 -1.157838,-1.26681 -0.502256,0.60518 -4.39787,3.0332 -6.053545,3.77299 -7.913269,3.53584 -16.00423,3.92989 -23.913986,1.16468 -2.302766,-0.80504 -5.638629,-2.62299 -7.928455,-4.32079 C 13.810441,197.32388 9.820504,191.17777 7.996679,183.37841 7.100471,179.54589 7.002047,173.09706 7.782318,169.33332 c 1.394989,-6.72891 4.576666,-13.05743 8.882833,-17.66844 1.020625,-1.09287 1.850524,-2.08893 1.84422,-2.21347 -0.0063,-0.12453 -0.809976,-0.7894 -1.785938,-1.4775 C 14.3959,146.3329 10.743406,142.61405 8.857012,139.96457 2.78647,131.43839 0.98269,120.99298 4.013876,111.91874 c 0.641481,-1.92035 2.344578,-5.35322 3.46043,-6.97505 1.471226,-2.13836 4.485886,-5.065787 6.834493,-6.636744 3.945812,-2.63931 7.9594,-3.90403 13.340159,-4.20361 l 3.175,-0.17678 -1.598454,-0.86708 c -3.267988,-1.77272 -5.837366,-4.40877 -7.40687,-7.59906 -1.294365,-2.63103 -1.78759,-4.82579 -1.783777,-7.9375 0.0085,-6.92299 3.105996,-13.1585 8.614827,-17.34226 4.133162,-3.13898 8.420689,-4.57638 13.551357,-4.5431 3.696287,0.02397 6.25543,0.659262 9.79923,2.432592 1.460513,0.730845 2.717943,1.328809 2.794286,1.328809 0.07634,0 0.139298,-1.160859 0.139901,-2.579688 0.0026,-6.058466 2.368428,-11.433452 7.076773,-16.077747 5.206735,-5.135906 12.24983,-8.244461 21.710623,-9.582248 3.966676,-0.5609 18.165416,-0.623334 22.905226,-0.100719 8.75284,0.9651 14.1972,3.325011 18.81035,8.153546 4.74925,4.970978 7.09811,11.193092 6.79656,18.004043 -0.066,1.491589 -0.0211,2.71198 0.0999,2.71198 0.121,0 1.7981,-0.477007 3.7269,-1.060016 7.00512,-2.117408 13.22242,-3.022928 20.57252,-2.996296 4.00252,0.0145 5.84163,0.14174 8.20208,0.56745 13.8574,2.49918 23.25617,10.974354 26.75557,24.126364 0.70064,2.63324 0.95597,8.50591 0.50461,11.6058 -1.19605,8.214164 -6.30417,16.587564 -12.77301,20.937944 -0.97372,0.65484 -1.77418,1.27901 -1.77879,1.38704 -0.005,0.10803 1.12173,0.72452 2.50296,1.36997 12.92035,6.03771 22.41456,17.24192 25.78976,30.43475 2.72141,10.63731 0.96218,21.59224 -4.81234,29.9671 -1.42415,2.06546 -4.61912,5.26791 -6.64881,6.66437 -1.87544,1.29033 -5.83234,3.08653 -8.24099,3.74092 -2.45933,0.66815 -8.42096,0.99466 -10.64948,0.58327 -0.79865,-0.14744 -1.38906,-0.15612 -1.38906,-0.0204 0,0.12981 0.3561,0.94144 0.79134,1.80364 0.43523,0.86219 1.1124,2.61497 1.50481,3.89506 0.63977,2.08697 0.71348,2.73747 0.71348,6.29618 0,3.55871 -0.0737,4.20921 -0.71348,6.29618 -2.6354,8.59692 -9.17374,14.65406 -18.65055,17.27793 -11.03475,3.05523 -23.58611,-0.23477 -32.2564,-8.45516 l -1.91369,-1.81439 -1.7914,1.64352 c -4.91162,4.50615 -12.30302,8.27108 -19.1506,9.75467 -4.51173,0.9775 -8.85238,1.2451 -13.03706,0.80374 z"
       id="path1041" />
  </g>
</svg>
